<svg xmlns="http://www.w3.org/2000/svg" xmlns:xlink="http://www.w3.org/1999/xlink"><defs><path d="M173.12,70.717c-1.574-0.909-3.514-0.909-5.087,0l-42.134,24.314c-1.576,0.909-2.546,2.588-2.546,4.408     v48.666c0,1.818,0.97,3.497,2.544,4.408l42.134,24.334c1.575,0.909,3.515,0.909,5.091,0l42.124-24.334     c1.574-0.91,2.543-2.59,2.543-4.408V99.437c0-1.818-0.97-3.497-2.545-4.406L173.12,70.717z" id="SVGID_1_"/><path d="M173.12,70.717c-1.574-0.909-3.514-0.909-5.087,0l-42.134,24.314c-1.576,0.909-2.546,2.588-2.546,4.408     v48.666c0,1.818,0.97,3.497,2.544,4.408l42.134,24.334c1.575,0.909,3.515,0.909,5.091,0l42.124-24.334     c1.574-0.91,2.543-2.59,2.543-4.408V99.437c0-1.818-0.97-3.497-2.545-4.406L173.12,70.717z" id="SVGID_4_"/></defs><symbol id="icon-css" viewBox="0 0 32 32"><g><polygon fill="#1F62AE" points="27.377,28.889 16.001,32 4.625,28.889 2,0 30.002,0  "/><polygon fill="#347DC6" points="16,2 16,29.75 25.232,27.008 27.688,2  "/><polygon fill="#FFFFFF" points="24.363,6 7.607,6 8,10 16,10 8.25,12.99 8.619,17 19.502,17 19.158,21 16,21.99 12.861,20.984    12.533,19 8.803,19 9.262,23.987 16,25.99 22.728,23.986 23.719,12.99 16.026,12.99 24,10  "/></g><g/><g/><g/><g/><g/><g/></symbol><symbol id="icon-figma" viewBox="0 0 3000 3000"><style type="text/css">
	.st0{fill:#0ACF83;}
	.st1{fill:#A259FF;}
	.st2{fill:#F24E1E;}
	.st3{fill:#FF7262;}
	.st4{fill:#1ABCFE;}
</style><title/><desc/><path class="st0" d="M1083.333374,2750c230,0,416.666626-186.666748,416.666626-416.666748v-416.666626h-416.666626  c-230.000061,0-416.666687,186.666626-416.666687,416.666626S853.333313,2750,1083.333374,2750z" id="path0_fill"/><path class="st1" d="M666.666687,1500c0-230,186.666626-416.666748,416.666687-416.666748H1500v833.333374  h-416.666626C853.333313,1916.666626,666.666687,1730,666.666687,1500z" id="path1_fill"/><path class="st2" d="M666.666687,666.666626C666.666687,436.666656,853.333313,250,1083.333374,250H1500  v833.333252h-416.666626C853.333313,1083.333252,666.666687,896.666626,666.666687,666.666626z" id="path1_fill_1_"/><path class="st3" d="M1500,250h416.666626c230.000122,0,416.666626,186.666656,416.666626,416.666626  s-186.666504,416.666626-416.666626,416.666626H1500V250z" id="path2_fill"/><path class="st4" d="M2333.333252,1500c0,230-186.666504,416.666626-416.666626,416.666626S1500,1730,1500,1500  s186.666626-416.666748,416.666626-416.666748S2333.333252,1270,2333.333252,1500z" id="path3_fill"/></symbol><symbol id="icon-git" viewBox="0 0 24 24"><g><path d="M23.5615234,10.9320221c-0.0009766,0-0.0009766-0.0004883-0.0009766-0.0004883L13.0615234,0.4256744   c-0.5664063-0.567749-1.5576172-0.5672607-2.1220703-0.0004883L0.4384766,10.9320221C0.15625,11.2158966,0,11.5926056,0,11.9927521   c0,0.4006348,0.15625,0.777771,0.4394531,1.0611572l10.4990234,10.5058594   C11.2216797,23.8436432,11.5986328,24.0000153,12,24.0000153s0.7783203-0.1563721,1.0605469-0.4397583l10.5-10.5063477   C23.84375,12.7705231,24,12.3933868,24,11.9927521C24,11.5926056,23.84375,11.2158966,23.5615234,10.9320221z" fill="#EF473B"/><path d="M23.6809692,12.6898956l-10.609375,10.6157837   C12.786438,23.5919952,12.4055176,23.7500153,12,23.7500153s-0.786438-0.15802-1.0725708-0.4448242L0.3190308,12.6898956   c-0.1239624-0.1240845-0.218689-0.2683716-0.2921143-0.4222412c0.0545654,0.2959595,0.1953125,0.5689087,0.4125366,0.7862549   l10.4990234,10.5058594C11.2216797,23.8436432,11.5986328,24.0000153,12,24.0000153s0.7783203-0.1563721,1.0605469-0.4397583   l10.5-10.5063477c0.2172241-0.2173462,0.3580322-0.4902954,0.4125977-0.7862549   C23.8997192,12.421524,23.8049316,12.5658112,23.6809692,12.6898956z" fill="#010101" opacity="0.1"/><path d="M17,10.0000153c-0.3748779,0-0.7219849,0.1100464-1.0222168,0.2902832l-2.2680664-2.2680664   C13.8898926,7.7220612,14,7.3749542,14,7.0000153c0-1.1030273-0.8974609-2-2-2   c-0.369873,0-0.7122803,0.1077881-1.0098267,0.2835693L8.536438,2.8295441L7.8295898,3.5367584l2.4536743,2.4539795   C10.1077271,6.2881012,10,6.6303253,10,7.0000153c0,0.9293213,0.6400146,1.7053833,1.5,1.9289551v6.1420898   C10.6400146,15.294632,10,16.070694,10,17.0000153c0,1.1030273,0.8974609,2,2,2s2-0.8969727,2-2   c0-0.9293213-0.6400146-1.7053833-1.5-1.9289551V8.9289703c0.1767578-0.0459595,0.3425293-0.1158447,0.4968872-0.2055054   l2.2796631,2.2796631C15.1053467,11.2978058,15,11.6353302,15,12.0000153c0,1.1030273,0.8974609,2,2,2s2-0.8969727,2-2   S18.1025391,10.0000153,17,10.0000153z" fill="#FFFFFF"/><path d="M0.4384766,11.1820221L10.9394531,0.6751862   c0.5644531-0.5667725,1.5556641-0.5672607,2.1220703,0.0004883l10.4990234,10.5058594c0,0,0,0.0004883,0.0009766,0.0004883   c0.2523193,0.2537842,0.3969727,0.583252,0.4262695,0.935791C23.991272,12.075943,24,12.0352325,24,11.9927521   c0-0.4001465-0.15625-0.7768555-0.4384766-1.06073c-0.0009766,0-0.0009766-0.0004883-0.0009766-0.0004883L13.0615234,0.4256744   c-0.5664063-0.567749-1.5576172-0.5672607-2.1220703-0.0004883L0.4384766,10.9320221C0.15625,11.2158966,0,11.5926056,0,11.9927521   c0,0.0424194,0.008728,0.0831299,0.012207,0.124939C0.0415649,11.765152,0.1862183,11.4357452,0.4384766,11.1820221z" fill="#FFFFFF" opacity="0.2"/><linearGradient gradientUnits="userSpaceOnUse" id="SVGID_1_" x1="9.6692657" x2="18.3065948" y1="9.6760864" y2="18.3134155"><stop offset="0" style="stop-color:#010101;stop-opacity:0.1"/><stop offset="1" style="stop-color:#010101;stop-opacity:0"/></linearGradient><path d="M18.5488281,10.7503815C18.8265381,11.0938263,19,11.5248566,19,12.0000153   c0,1.1030273-0.8974609,2-2,2s-2-0.8969727-2-2c0-0.3646851,0.1053467-0.7022095,0.2765503-0.9968872L12.9968872,8.723465   C12.8425293,8.8131256,12.6767578,8.8830109,12.5,8.9289703v6.1420898c0.8599854,0.2235718,1.5,0.9996338,1.5,1.9289551   c0,1.1030273-0.8974609,2-2,2c-0.5114746,0-0.9738159-0.1986694-1.3278809-0.5157471l3.7318115,3.7318115l7.8029175-7.8076782   L18.5488281,10.7503815z M13.7097168,8.0222321l2.2680664,2.2680664C16.2780151,10.1100616,16.6251221,10.0000153,17,10.0000153   c0.4750977,0,0.90625,0.1735229,1.2498169,0.451355l-4.6776733-4.6777344L13.5697021,5.77565   C13.835144,6.1150665,14,6.5366364,14,7.0000153C14,7.3749542,13.8898926,7.7220612,13.7097168,8.0222321z" fill="url(#SVGID_1_)"/><linearGradient gradientUnits="userSpaceOnUse" id="SVGID_2_" x1="2.0138185" x2="21.983366" y1="7.3399205" y2="16.6518726"><stop offset="0" style="stop-color:#FFFFFF;stop-opacity:0.2"/><stop offset="1" style="stop-color:#FFFFFF;stop-opacity:0"/></linearGradient><path d="M23.5615234,10.9320221c-0.0009766,0-0.0009766-0.0004883-0.0009766-0.0004883L13.0615234,0.4256744   c-0.5664063-0.567749-1.5576172-0.5672607-2.1220703-0.0004883L0.4384766,10.9320221C0.15625,11.2158966,0,11.5926056,0,11.9927521   c0,0.4006348,0.15625,0.777771,0.4394531,1.0611572l10.4990234,10.5058594   C11.2216797,23.8436432,11.5986328,24.0000153,12,24.0000153s0.7783203-0.1563721,1.0605469-0.4397583l10.5-10.5063477   C23.84375,12.7705231,24,12.3933868,24,11.9927521C24,11.5926056,23.84375,11.2158966,23.5615234,10.9320221z" fill="url(#SVGID_2_)"/></g><g/><g/><g/><g/><g/><g/><g/><g/><g/><g/><g/><g/><g/><g/><g/></symbol><symbol id="icon-github" viewBox="0 0 40 40">
<path d="M40 20C40 8.95431 31.0457 0 20 0V0C8.95431 0 0 8.95431 0 20V20C0 31.0457 8.95431 40 20 40V40C31.0457 40 40 31.0457 40 20V20Z" fill="#231E1B"/>
<path fill-rule="evenodd" clip-rule="evenodd" d="M19.9694 10.2402C14.4648 10.2402 10 14.7051 10 20.2097C10 24.6133 12.8746 28.3442 16.789 29.6898C17.2783 29.7509 17.4618 29.4451 17.4618 29.2005C17.4618 28.9558 17.4618 28.3442 17.4618 27.4879C14.7095 28.0996 14.0979 26.1424 14.0979 26.1424C13.6697 24.9803 12.9969 24.6745 12.9969 24.6745C12.0795 24.0629 13.0581 24.0629 13.0581 24.0629C14.0367 24.124 14.5872 25.1026 14.5872 25.1026C15.5046 26.6317 16.9113 26.2035 17.4618 25.9589C17.5229 25.2861 17.8287 24.858 18.0734 24.6133C15.8716 24.3687 13.5474 23.5124 13.5474 19.6592C13.5474 18.5583 13.9144 17.702 14.5872 16.9681C14.526 16.7846 14.159 15.7448 14.7095 14.3993C14.7095 14.3993 15.5657 14.1546 17.4618 15.439C18.2569 15.1944 19.1131 15.1332 19.9694 15.1332C20.8257 15.1332 21.682 15.2555 22.4771 15.439C24.3731 14.1546 25.2294 14.3993 25.2294 14.3993C25.7798 15.7448 25.4128 16.7846 25.3517 17.0292C25.9633 17.702 26.3914 18.6194 26.3914 19.7204C26.3914 23.5736 24.0673 24.3687 21.8654 24.6133C22.2324 24.9191 22.5382 25.5308 22.5382 26.4482C22.5382 27.7938 22.5382 28.8335 22.5382 29.2005C22.5382 29.4451 22.7217 29.7509 23.211 29.6898C27.1865 28.3442 30 24.6133 30 20.2097C29.9388 14.7051 25.474 10.2402 19.9694 10.2402Z" fill="white"/>
</symbol><symbol id="icon-gulp" viewBox="0 0 256 512"><path d="M209.8 391.1l-14.1 24.6-4.6 80.2c0 8.9-28.3 16.1-63.1 16.1s-63.1-7.2-63.1-16.1l-5.8-79.4-14.9-25.4c41.2 17.3 126 16.7 165.6 0zm-196-253.3l13.6 125.5c5.9-20 20.8-47 40-55.2 6.3-2.7 12.7-2.7 18.7.9 5.2 3 9.6 9.3 10.1 11.8 1.2 6.5-2 9.1-4.5 9.1-3 0-5.3-4.6-6.8-7.3-4.1-7.3-10.3-7.6-16.9-2.8-6.9 5-12.9 13.4-17.1 20.7-5.1 8.8-9.4 18.5-12 28.2-1.5 5.6-2.9 14.6-.6 19.9 1 2.2 2.5 3.6 4.9 3.6 5 0 12.3-6.6 15.8-10.1 4.5-4.5 10.3-11.5 12.5-16l5.2-15.5c2.6-6.8 9.9-5.6 9.9 0 0 10.2-3.7 13.6-10 34.7-5.8 19.5-7.6 25.8-7.6 25.8-.7 2.8-3.4 7.5-6.3 7.5-1.2 0-2.1-.4-2.6-1.2-1-1.4-.9-5.3-.8-6.3.2-3.2 6.3-22.2 7.3-25.2-2 2.2-4.1 4.4-6.4 6.6-5.4 5.1-14.1 11.8-21.5 11.8-3.4 0-5.6-.9-7.7-2.4l7.6 79.6c2 5 39.2 17.1 88.2 17.1 49.1 0 86.3-12.2 88.2-17.1l10.9-94.6c-5.7 5.2-12.3 11.6-19.6 14.8-5.4 2.3-17.4 3.8-17.4-5.7 0-5.2 9.1-14.8 14.4-21.5 1.4-1.7 4.7-5.9 4.7-8.1 0-2.9-6-2.2-11.7 2.5-3.2 2.7-6.2 6.3-8.7 9.7-4.3 6-6.6 11.2-8.5 15.5-6.2 14.2-4.1 8.6-9.1 22-5 13.3-4.2 11.8-5.2 14-.9 1.9-2.2 3.5-4 4.5-1.9 1-4.5.9-6.1-.3-.9-.6-1.3-1.9-1.3-3.7 0-.9.1-1.8.3-2.7 1.5-6.1 7.8-18.1 15-34.3 1.6-3.7 1-2.6.8-2.3-6.2 6-10.9 8.9-14.4 10.5-5.8 2.6-13 2.6-14.5-4.1-.1-.4-.1-.8-.2-1.2-11.8 9.2-24.3 11.7-20-8.1-4.6 8.2-12.6 14.9-22.4 14.9-4.1 0-7.1-1.4-8.6-5.1-2.3-5.5 1.3-14.9 4.6-23.8 1.7-4.5 4-9.9 7.1-16.2 1.6-3.4 4.2-5.4 7.6-4.5.6.2 1.1.4 1.6.7 2.6 1.8 1.6 4.5.3 7.2-3.8 7.5-7.1 13-9.3 20.8-.9 3.3-2 9 1.5 9 2.4 0 4.7-.8 6.9-2.4 4.6-3.4 8.3-8.5 11.1-13.5 2-3.6 4.4-8.3 5.6-12.3.5-1.7 1.1-3.3 1.8-4.8 1.1-2.5 2.6-5.1 5.2-5.1 1.3 0 2.4.5 3.2 1.5 1.7 2.2 1.3 4.5.4 6.9-2 5.6-4.7 10.6-6.9 16.7-1.3 3.5-2.7 8-2.7 11.7 0 3.4 3.7 2.6 6.8 1.2 2.4-1.1 4.8-2.8 6.8-4.5 1.2-4.9.9-3.8 26.4-68.2 1.3-3.3 3.7-4.7 6.1-4.7 1.2 0 2.2.4 3.2 1.1 1.7 1.3 1.7 4.1 1 6.2-.7 1.9-.6 1.3-4.5 10.5-5.2 12.1-8.6 20.8-13.2 31.9-1.9 4.6-7.7 18.9-8.7 22.3-.6 2.2-1.3 5.8 1 5.8 5.4 0 19.3-13.1 23.1-17 .2-.3.5-.4.9-.6.6-1.9 1.2-3.7 1.7-5.5 1.4-3.8 2.7-8.2 5.3-11.3.8-1 1.7-1.6 2.7-1.6 2.8 0 4.2 1.2 4.2 4 0 1.1-.7 5.1-1.1 6.2 1.4-1.5 2.9-3 4.5-4.5 15-13.9 25.7-6.8 25.7.2 0 7.4-8.9 17.7-13.8 23.4-1.6 1.9-4.9 5.4-5 6.4 0 1.3.9 1.8 2.2 1.8 2 0 6.4-3.5 8-4.7 5-3.9 11.8-9.9 16.6-14.1l14.8-136.8c-30.5 17.1-197.6 17.2-228.3.2zm229.7-8.5c0 21-231.2 21-231.2 0 0-8.8 51.8-15.9 115.6-15.9 9 0 17.8.1 26.3.4l12.6-48.7L228.1.6c1.4-1.4 5.8-.2 9.9 3.5s6.6 7.9 5.3 9.3l-.1.1L185.9 74l-10 40.7c39.9 2.6 67.6 8.1 67.6 14.6zm-69.4 4.6c0-.8-.9-1.5-2.5-2.1l-.2.8c0 1.3-5 2.4-11.1 2.4s-11.1-1.1-11.1-2.4c0-.1 0-.2.1-.3l.2-.7c-1.8.6-3 1.4-3 2.3 0 2.1 6.2 3.7 13.7 3.7 7.7.1 13.9-1.6 13.9-3.7z"/></symbol><symbol id="icon-hh"><path d="M24 48c13.255 0 24-10.745 24-24S37.255 0 24 0 0 10.745 0 24s10.745 24 24 24" fill="#D6001C"/><path d="M13.65 13.169v8.164c1.243-1.482 2.733-2.228 4.461-2.228.89 0 1.687.17 2.402.507.717.335 1.253.765 1.615 1.287.364.527.61 1.104.743 1.74.132.633.198 1.618.198 2.954v8.729h-3.862V26.46c0-1.56-.07-2.548-.217-2.968a1.917 1.917 0 00-.775-1c-.372-.251-.835-.375-1.394-.375-.64 0-1.214.16-1.713.478-.51.32-.876.798-1.108 1.437-.236.64-.354 1.585-.35 2.836l-.004 7.454H9.789V13.169h3.862m15.206 0v8.164c1.244-1.482 2.733-2.228 4.46-2.228.887 0 1.69.17 2.406.507.714.335 1.25.765 1.61 1.287a4.69 4.69 0 01.743 1.74c.133.633.199 1.618.199 2.954v8.729h-3.858V26.46c0-1.56-.073-2.548-.22-2.968a1.91 1.91 0 00-.777-1c-.368-.251-.835-.375-1.394-.375-.639 0-1.213.16-1.713.478-.503.32-.871.798-1.106 1.437-.232.64-.35 1.585-.35 2.836v7.454H25V13.169h3.857" fill="#FEFEFE"/></symbol><symbol id="icon-html" viewBox="0 0 32 32"><g><polygon fill="#E44D26" points="27.377,28.889 16.001,32 4.625,28.889 2,0 30.002,0  "/><polygon fill="#FF6C39" points="16,2 16,29.75 25.232,27.008 27.688,2  "/><polygon fill="#FFFFFF" points="24.363,6 7.607,6 8,10 8.619,17 19.503,17 19.148,20.984 16,21.99 12.857,20.984 12.648,19    8.803,19 9.262,23.987 16,25.99 22.728,23.986 23.718,13 12.252,13 12.002,10 24,10  "/></g><g/><g/><g/><g/><g/><g/></symbol><symbol id="icon-js" viewBox="0 0 512 512"><g id="_x31_87-js"><g><rect height="459.998" style="fill:#F0DB4F;" width="459.996" x="26.002" y="26.001"/><path d="M276.331,384.759c0,44.767-26.286,65.2-64.586,65.2c-34.601,0-54.623-17.865-64.892-39.529    l35.218-21.255c6.777,12.013,12.938,22.177,27.826,22.177c14.169,0,23.207-5.544,23.207-27.208V237.21h43.227V384.759    L276.331,384.759z" style="fill:#323330;"/><path d="M378.598,449.959c-40.147,0-66.124-19.099-78.754-44.151l35.219-20.332    c9.241,15.095,21.356,26.286,42.611,26.286c17.866,0,29.364-8.932,29.364-21.355c0-14.787-11.704-20.021-31.52-28.75l-10.781-4.62    c-31.214-13.246-51.853-29.983-51.853-65.2c0-32.447,24.745-57.09,63.248-57.09c27.518,0,47.232,9.549,61.402,34.603    l-33.679,21.562c-7.392-13.246-15.401-18.481-27.825-18.481c-12.63,0-20.639,8.01-20.639,18.481    c0,12.938,8.009,18.176,26.594,26.285l10.78,4.621c36.759,15.71,57.397,31.832,57.397,67.974    C450.164,428.602,419.565,449.959,378.598,449.959L378.598,449.959z" style="fill:#323330;"/></g></g><g id="Layer_1"/></symbol><symbol id="icon-less" viewBox="0 0 512 512"><g id="_x31_98-less"><g><path d="M466.375,229.367c0-14.737,2.3-23.435,2.3-39.25c0-24.585-9.058-32.493-29.113-32.493h-14.737    v17.396h4.529c10.208,0,12.436,3.379,12.436,15.887c0,11.717-1.15,23.434-1.15,37.021c0,17.396,5.679,24.154,16.967,26.814v1.149    c-11.358,2.659-16.967,9.417-16.967,26.814c0,13.586,1.15,24.583,1.15,37.021c0,12.869-2.66,16.247-12.436,16.247v0.358h-4.529    v18.115h14.737c19.983,0,29.113-7.907,29.113-32.492c0-16.246-2.3-24.584-2.3-39.249c0-7.907,4.888-16.248,19.624-16.966v-19.624    C471.263,245.613,466.375,237.274,466.375,229.367L466.375,229.367z M390.462,252.37c-11.357-4.529-21.924-7.189-21.924-14.736    c0-5.679,4.528-9.057,12.866-9.057c8.339,0,15.889,3.378,24.155,9.416l15.095-19.984c-9.418-7.189-22.284-14.737-39.681-14.737    c-25.664,0-43.06,14.737-43.06,35.511c0,18.475,16.247,27.964,29.834,33.212c11.717,4.527,23.074,8.339,23.074,15.887    c0,5.679-4.529,9.416-14.736,9.416c-9.417,0-18.907-3.811-29.114-11.717l-15.094,21.925c11.355,9.418,28.682,15.889,43.058,15.889    c30.191,0,46.438-15.889,46.438-36.662C421.373,265.957,405.199,257.258,390.462,252.37L390.462,252.37z M132.464,295.07    c-2.66,0-6.038-2.3-6.038-9.416V157.553H72.799c-20.417,0-29.474,7.907-29.474,32.492c0,16.247,2.3,25.304,2.3,39.25    c0,7.908-4.888,16.246-19.624,16.965v19.626c14.736,0.358,19.624,8.697,19.624,16.604c0,13.947-2.3,22.284-2.3,38.53    c0,24.585,9.057,32.493,29.113,32.493h14.737v-17.396h-4.529c-9.416,0-12.437-3.811-12.437-16.248    c0-12.435,1.15-23.072,1.15-37.021c0-17.395-5.678-24.152-16.964-26.813v-1.151c11.356-2.658,16.964-9.416,16.964-26.813    c0-13.585-1.15-24.584-1.15-37.021c0-12.436,2.661-15.887,12.437-15.887h10.137v108.405c0,23.074,7.907,38.172,30.982,38.172    c7.188,0,12.867-1.151,16.965-2.659l-3.811-24.586C134.692,295.07,133.614,295.07,132.464,295.07L132.464,295.07z M299.023,252.37    c-11.718-4.529-22.284-7.189-22.284-14.736c0-5.679,4.528-9.057,12.867-9.057s15.887,3.378,24.153,9.416l15.096-19.984    c-9.416-7.189-22.284-14.737-39.68-14.737c-25.664,0-43.06,14.737-43.06,35.511c0,18.475,16.247,27.964,29.834,33.212    c11.716,4.527,23.073,8.339,23.073,15.887c0,5.679-4.529,9.416-14.736,9.416c-9.416,0-18.906-3.811-29.113-11.717l-14.737,21.925    c11.357,9.418,28.682,15.889,43.061,15.889c30.192,0,46.438-15.889,46.438-36.662C330.007,265.957,313.76,257.258,299.023,252.37    L299.023,252.37z M187.602,202.913c-27.605,0-53.987,23.076-53.269,59.306c0,37.382,24.585,59.307,57.006,59.307    c13.586,0,28.683-4.891,40.399-12.866l-11.358-19.986c-8.339,4.888-16.246,7.187-24.585,7.187    c-15.096,0-26.813-7.187-29.833-24.582h68.437c0.359-2.662,1.149-7.907,1.149-13.946    C235.98,226.707,219.303,202.913,187.602,202.913L187.602,202.913z M166.035,250.501c2.299-15.096,11.358-22.284,21.925-22.284    c13.586,0,18.905,9.417,18.905,22.284H166.035z" style="fill:#214674;"/></g></g><g id="Layer_1"/></symbol><symbol id="icon-node" viewBox="0 0 456 284"><g><path d="M225.953,279.054c-1.46,0-2.912-0.381-4.19-1.121l-13.339-7.892c-1.991-1.115-1.018-1.509-0.362-1.738   c2.657-0.922,3.195-1.135,6.031-2.743c0.295-0.166,0.687-0.103,0.992,0.076l10.247,6.084c0.372,0.206,0.896,0.206,1.237,0   l39.95-23.058c0.372-0.212,0.61-0.64,0.61-1.081v-46.103c0-0.451-0.239-0.872-0.62-1.101l-39.933-23.038   c-0.368-0.216-0.859-0.216-1.231,0l-39.923,23.045c-0.388,0.222-0.634,0.657-0.634,1.094v46.103c0,0.441,0.245,0.859,0.63,1.068   l10.944,6.323c5.938,2.969,9.573-0.528,9.573-4.041v-45.52c0-0.643,0.518-1.151,1.161-1.151h5.066c0.634,0,1.158,0.508,1.158,1.151   v45.52c0,7.925-4.316,12.47-11.829,12.47c-2.309,0-4.127,0-9.202-2.501l-10.476-6.031c-2.587-1.496-4.19-4.293-4.19-7.288v-46.103   c0-2.995,1.602-5.792,4.19-7.281l39.95-23.085c2.528-1.43,5.888-1.43,8.396,0l39.947,23.085c2.587,1.496,4.196,4.286,4.196,7.281   v46.103c0,2.995-1.609,5.782-4.196,7.288l-39.947,23.065C228.882,278.673,227.433,279.054,225.953,279.054z" fill="#699F63"/><path d="M238.293,247.292c-17.482,0-21.144-8.024-21.144-14.755c0-0.64,0.514-1.151,1.155-1.151h5.165   c0.577,0,1.058,0.415,1.148,0.979c0.78,5.258,3.105,7.912,13.677,7.912c8.416,0,11.999-1.904,11.999-6.369   c0-2.574-1.015-4.485-14.095-5.766c-10.93-1.081-17.691-3.496-17.691-12.241c0-8.061,6.794-12.868,18.186-12.868   c12.798,0,19.131,4.442,19.933,13.972c0.03,0.328-0.086,0.644-0.305,0.889c-0.219,0.229-0.524,0.368-0.846,0.368h-5.185   c-0.537,0-1.012-0.381-1.121-0.902c-1.244-5.533-4.269-7.301-12.476-7.301c-9.189,0-10.257,3.201-10.257,5.599   c0,2.906,1.261,3.752,13.667,5.394c12.277,1.622,18.109,3.921,18.109,12.549C258.21,242.306,250.952,247.292,238.293,247.292z" fill="#699F63"/></g><g><path d="M295.899,198.941c0,4.236-3.463,7.699-7.699,7.699c-4.197,0-7.699-3.422-7.699-7.699   c0-4.359,3.586-7.701,7.699-7.701C292.356,191.24,295.899,194.582,295.899,198.941z M281.744,198.919   c0,3.586,2.892,6.479,6.435,6.479c3.586,0,6.479-2.954,6.479-6.479c0-3.584-2.932-6.436-6.479-6.436   C284.676,192.484,281.744,195.293,281.744,198.919z M285.307,194.622h2.976c1.018,0,3.015,0,3.015,2.282   c0,1.589-1.018,1.914-1.632,2.118c1.184,0.082,1.264,0.856,1.426,1.956c0.083,0.692,0.206,1.874,0.448,2.281h-1.831   c-0.043-0.406-0.328-2.607-0.328-2.728c-0.119-0.49-0.285-0.733-0.895-0.733h-1.506v3.461h-1.672v-8.637H285.307z M286.939,198.41   h1.343c1.098,0,1.304-0.773,1.304-1.221c0-1.183-0.816-1.183-1.264-1.183h-1.383L286.939,198.41L286.939,198.41z" fill="#699F63"/></g><path d="M102.243,98.677c0-1.841-0.969-3.533-2.558-4.445L57.33,69.857c-0.716-0.421-1.519-0.64-2.332-0.674  c-0.073,0-0.378,0-0.438,0c-0.809,0.033-1.612,0.252-2.339,0.674L9.866,94.232c-1.579,0.912-2.561,2.604-2.561,4.445l0.093,65.635  c0,0.912,0.474,1.762,1.277,2.209c0.786,0.471,1.758,0.471,2.541,0l25.172-14.414c1.592-0.945,2.561-2.614,2.561-4.438v-30.665  c0-1.828,0.968-3.52,2.554-4.428l10.718-6.173c0.799-0.461,1.672-0.687,2.564-0.687c0.872,0,1.768,0.226,2.544,0.687l10.715,6.173  c1.586,0.909,2.558,2.601,2.558,4.428v30.665c0,1.824,0.982,3.503,2.564,4.438l25.165,14.414c0.789,0.471,1.775,0.471,2.558,0  c0.78-0.448,1.271-1.297,1.271-2.209L102.243,98.677z" fill="#333333"/><path d="M306.04,8.451c-0.793-0.441-1.76-0.431-2.543,0.028c-0.781,0.46-1.262,1.299-1.262,2.206v65  c0,0.639-0.342,1.231-0.894,1.551c-0.554,0.32-1.237,0.32-1.792,0l-10.608-6.112c-1.583-0.912-3.53-0.91-5.112,0.002l-42.372,24.453  c-1.584,0.914-2.559,2.603-2.559,4.43v48.916c0,1.828,0.975,3.516,2.558,4.432l42.37,24.471c1.584,0.914,3.534,0.914,5.118,0  l42.376-24.471c1.583-0.915,2.558-2.604,2.558-4.432V26.989c0-1.854-1.003-3.565-2.624-4.469L306.04,8.451z M302.109,132.853  c0,0.456-0.244,0.879-0.64,1.106l-14.548,8.386c-0.395,0.227-0.882,0.227-1.277,0l-14.548-8.386c-0.396-0.227-0.64-0.65-0.64-1.106  v-16.799c0-0.456,0.244-0.879,0.639-1.108l14.548-8.403c0.396-0.229,0.884-0.229,1.28,0l14.548,8.403  c0.395,0.229,0.639,0.652,0.639,1.108L302.109,132.853L302.109,132.853z" fill="#333333"/><g><path d="M447.131,115.615c1.576-0.915,2.546-2.601,2.546-4.424V99.337c0-1.823-0.97-3.51-2.548-4.425L405.03,70.469   c-1.584-0.921-3.54-0.922-5.127-0.007l-42.356,24.453c-1.583,0.914-2.558,2.602-2.558,4.43v48.903c0,1.839,0.987,3.536,2.584,4.445   l42.093,23.985c1.552,0.886,3.455,0.896,5.017,0.028l25.46-14.151c0.808-0.449,1.311-1.297,1.315-2.219   c0.007-0.922-0.484-1.776-1.284-2.236l-42.625-24.465c-0.796-0.456-1.285-1.304-1.285-2.22v-15.326c0-0.914,0.487-1.76,1.28-2.216   l13.266-7.648c0.789-0.456,1.765-0.456,2.554,0l13.273,7.648c0.793,0.456,1.28,1.302,1.28,2.216v12.058   c0,0.916,0.49,1.762,1.282,2.218c0.793,0.458,1.77,0.454,2.561-0.005L447.131,115.615z" fill="#333333"/><path d="M401.842,113.324c0.304-0.176,0.678-0.176,0.982,0l8.13,4.69c0.304,0.176,0.491,0.499,0.491,0.851v9.388   c0,0.352-0.187,0.675-0.491,0.851l-8.13,4.69c-0.304,0.176-0.678,0.176-0.982,0l-8.124-4.69c-0.304-0.176-0.491-0.499-0.491-0.851   v-9.388c0-0.352,0.187-0.675,0.491-0.851L401.842,113.324z" fill="#699F63"/></g><g><g><linearGradient gradientTransform="matrix(1 0 0 -1 0 288.11)" gradientUnits="userSpaceOnUse" id="XMLID_2_" x1="187.702" x2="149.6371" y1="199.2852" y2="121.6329"><stop offset="0" style="stop-color:#41873F"/><stop offset="0.3288" style="stop-color:#418B3D"/><stop offset="0.6352" style="stop-color:#419637"/><stop offset="0.9319" style="stop-color:#3FA92D"/><stop offset="1" style="stop-color:#3FAE2A"/></linearGradient><path d="M173.12,70.717c-1.574-0.909-3.514-0.909-5.087,0l-42.134,24.314    c-1.576,0.909-2.546,2.588-2.546,4.408v48.666c0,1.818,0.97,3.497,2.544,4.408l42.134,24.334c1.575,0.909,3.515,0.909,5.091,0    l42.124-24.334c1.574-0.91,2.543-2.59,2.543-4.408V99.437c0-1.818-0.97-3.497-2.545-4.406L173.12,70.717z" fill="url(#XMLID_2_)" id="XMLID_143_"/></g><g><clipPath id="SVGID_2_"><use overflow="visible" xlink:href="#SVGID_1_"/></clipPath><g clip-path="url(#SVGID_2_)"><path d="M167.944,70.717l-42.222,24.314C124.146,95.94,123,97.619,123,99.439v48.666     c0,1.203,0.514,2.339,1.313,3.238l47.44-81.152C170.479,69.877,169.101,70.049,167.944,70.717z" fill="none"/><path d="M171.988,177.339c0.41-0.113,0.81-0.275,1.186-0.492l42.177-24.334c1.574-0.91,2.649-2.59,2.649-4.408     V99.437c0-1.338-0.598-2.598-1.54-3.534L171.988,177.339z" fill="none"/><linearGradient gradientTransform="matrix(1 0 0 -1 0 288.11)" gradientUnits="userSpaceOnUse" id="SVGID_3_" x1="164.1574" x2="270.9646" y1="158.647" y2="237.5619"><stop offset="0.1376" style="stop-color:#41873F"/><stop offset="0.4032" style="stop-color:#54A044"/><stop offset="0.7136" style="stop-color:#66B848"/><stop offset="0.9081" style="stop-color:#6CC04A"/></linearGradient><path d="M215.327,95.031l-42.252-24.314c-0.417-0.241-0.863-0.413-1.322-0.526l-47.44,81.152     c0.409,0.46,0.888,0.861,1.42,1.169l42.323,24.334c1.199,0.692,2.624,0.854,3.931,0.492l44.473-81.436     C216.122,95.568,215.743,95.271,215.327,95.031z" fill="url(#SVGID_3_)"/></g></g><g><clipPath id="SVGID_5_"><use overflow="visible" xlink:href="#SVGID_4_"/></clipPath><g clip-path="url(#SVGID_5_)"><path d="M218,148.105V99.437c0-1.818-1.098-3.497-2.673-4.406l-42.252-24.314c-0.485-0.28-1.011-0.463-1.551-0.571     l46.317,79.128C217.94,148.895,218,148.505,218,148.105z" fill="none"/><path d="M125.722,95.031C124.146,95.94,123,97.619,123,99.439v48.666c0,1.818,1.16,3.497,2.733,4.408l42.323,24.334     c0.995,0.574,2.146,0.784,3.256,0.632l-45.337-82.594L125.722,95.031z" fill="none"/><linearGradient gradientTransform="matrix(1 0 0 -1 0 288.11)" gradientUnits="userSpaceOnUse" id="SVGID_6_" x1="121.8623" x2="219.2793" y1="226.1655" y2="226.1655"><stop offset="0.0919" style="stop-color:#6CC04A"/><stop offset="0.2864" style="stop-color:#66B848"/><stop offset="0.5968" style="stop-color:#54A044"/><stop offset="0.8624" style="stop-color:#41873F"/></linearGradient><polygon fill="url(#SVGID_6_)" points="166.627,61.779 166.047,62.11 166.821,62.11    "/><linearGradient gradientTransform="matrix(1 0 0 -1 0 288.11)" gradientUnits="userSpaceOnUse" id="SVGID_7_" x1="121.8623" x2="219.2793" y1="164.3476" y2="164.3476"><stop offset="0.0919" style="stop-color:#6CC04A"/><stop offset="0.2864" style="stop-color:#66B848"/><stop offset="0.5968" style="stop-color:#54A044"/><stop offset="0.8624" style="stop-color:#41873F"/></linearGradient><path d="M215.351,152.513c1.228-0.71,2.144-1.891,2.491-3.238l-46.317-79.128     c-1.209-0.241-2.492-0.058-3.581,0.571l-41.968,24.168l45.337,82.594c0.647-0.088,1.281-0.298,1.861-0.632L215.351,152.513z" fill="url(#SVGID_7_)"/><linearGradient gradientTransform="matrix(1 0 0 -1 0 288.11)" gradientUnits="userSpaceOnUse" id="SVGID_8_" x1="121.8623" x2="219.2793" y1="136.5375" y2="136.5375"><stop offset="0.0919" style="stop-color:#6CC04A"/><stop offset="0.2864" style="stop-color:#66B848"/><stop offset="0.5968" style="stop-color:#54A044"/><stop offset="0.8624" style="stop-color:#41873F"/></linearGradient><polygon fill="url(#SVGID_8_)" points="219.279,151.73 219,151.253 219,151.892    "/><linearGradient gradientTransform="matrix(1 0 0 -1 0 288.11)" gradientUnits="userSpaceOnUse" id="SVGID_9_" x1="121.8623" x2="219.2793" y1="123.968" y2="123.968"><stop offset="0.0919" style="stop-color:#6CC04A"/><stop offset="0.2864" style="stop-color:#66B848"/><stop offset="0.5968" style="stop-color:#54A044"/><stop offset="0.8624" style="stop-color:#41873F"/></linearGradient><path d="M215.351,152.513l-42.177,24.334c-0.58,0.335-1.214,0.544-1.861,0.632l0.84,1.53L219,151.892     v-0.639l-1.158-1.978C217.495,150.622,216.579,151.802,215.351,152.513z" fill="url(#SVGID_9_)"/><linearGradient gradientTransform="matrix(1 0 0 -1 0 288.11)" gradientUnits="userSpaceOnUse" id="SVGID_10_" x1="233.4718" x2="173.3912" y1="201.5876" y2="79.0232"><stop offset="0" style="stop-color:#41873F"/><stop offset="0.3288" style="stop-color:#418B3D"/><stop offset="0.6352" style="stop-color:#419637"/><stop offset="0.9319" style="stop-color:#3FA92D"/><stop offset="1" style="stop-color:#3FAE2A"/></linearGradient><path d="M215.351,152.513l-42.177,24.334c-0.58,0.335-1.214,0.544-1.861,0.632l0.84,1.53L219,151.892     v-0.639l-1.158-1.978C217.495,150.622,216.579,151.802,215.351,152.513z" fill="url(#SVGID_10_)"/></g></g></g></symbol><symbol id="icon-npm" viewBox="0 0 40 40"><title/><g id="NPM"><path d="M4,13.78H36V24.44H20v1.78H12.89V24.44H4Zm1.78,8.89H9.33V17.33h1.78v5.34h1.78V15.56H5.78Zm8.89-7.11v8.88h3.55V22.67h3.56V15.56Zm3.55,1.77H20v3.56H18.22Zm5.34-1.77v7.11h3.55V17.33h1.78v5.34h1.78V17.33h1.77v5.34h1.78V15.56Z"/></g></symbol><symbol id="icon-sass" viewBox="0 0 512 512"><g id="_x32_88-sass"><g><g><path d="M422.009,281.793c-16.096,0.071-30.035,3.952-41.675,9.701c-4.24-8.553-8.624-16.025-9.343-21.629     c-0.86-6.54-1.796-10.419-0.789-18.179c1.007-7.762,5.532-18.756,5.461-19.545c-0.071-0.79-1.006-4.743-10.275-4.815     c-9.269-0.071-17.244,1.796-18.179,4.239c-0.936,2.443-2.73,7.977-3.808,13.725c-1.653,8.407-18.54,38.443-28.097,54.107     c-3.161-6.106-5.819-11.497-6.395-15.808c-0.862-6.54-1.796-10.419-0.79-18.179c1.006-7.762,5.532-18.756,5.46-19.545     c-0.072-0.79-1.006-4.743-10.274-4.815c-9.27-0.071-17.244,1.796-18.18,4.24c-0.934,2.442-1.94,8.191-3.808,13.726     c-1.867,5.53-24.359,55.541-30.251,68.548c-3.019,6.609-5.604,11.927-7.473,15.521c-0.286,0.574-0.502,0.934-0.646,1.222     c0.215-0.359,0.36-0.72,0.36-0.574c-1.581,3.088-2.516,4.813-2.516,4.813v0.071c-1.222,2.299-2.587,4.382-3.233,4.382     c-0.432,0-1.365-6.034,0.216-14.298c3.376-17.389,11.352-44.404,11.28-45.34c-0.072-0.503,1.508-5.173-5.246-7.689     c-6.538-2.371-8.91,1.582-9.484,1.582s-1.006,1.438-1.006,1.438s7.258-30.467-13.94-30.467     c-13.221,0-31.615,14.516-40.668,27.665c-5.677,3.09-17.965,9.772-30.898,16.885c-4.958,2.731-10.06,5.532-14.874,8.192     c-0.359-0.361-0.647-0.72-1.006-1.079c-25.724-27.447-73.22-46.848-71.207-83.711c0.718-13.437,5.389-48.716,91.327-91.542     c70.418-35.065,126.751-25.436,136.453-4.024c13.938,30.539-30.109,87.376-103.256,95.566     c-27.88,3.09-42.537-7.688-46.202-11.711c-3.809-4.239-4.384-4.456-5.821-3.665c-2.372,1.293-0.862,5.03,0,7.257     c2.156,5.676,11.137,15.736,26.443,20.766c13.435,4.383,46.13,6.827,85.649-8.479c44.406-17.102,78.969-64.742,68.837-104.62     C303.809,85.2,236.625,71.906,173.034,94.468c-37.867,13.437-78.824,34.563-108.285,62.082     c-34.993,32.767-40.597,61.292-38.299,73.221c8.192,42.321,66.537,69.914,89.89,90.32c-1.15,0.647-2.228,1.222-3.233,1.797     c-11.712,5.819-56.19,29.1-67.328,53.677c-12.573,27.879,2.083,47.853,11.712,50.585c30.035,8.334,60.789-6.683,77.316-31.33     c16.525-24.645,14.514-56.836,6.898-71.495c-0.073-0.215-0.216-0.357-0.287-0.575c3.017-1.795,6.106-3.592,9.197-5.388     c5.963-3.521,11.784-6.756,16.885-9.556c-2.875,7.761-4.958,17.098-6.036,30.609c-1.293,15.807,5.246,36.286,13.725,44.334     c3.735,3.521,8.262,3.594,11.065,3.594c9.916,0,14.37-8.193,19.328-17.965c6.108-11.93,11.497-25.798,11.497-25.798     s-6.754,37.511,11.712,37.511c6.754,0,13.51-8.695,16.526-13.15v0.071c0,0,0.145-0.286,0.504-0.86     c0.718-1.079,1.077-1.726,1.077-1.726v-0.217c2.73-4.67,8.695-15.377,17.675-33.052c11.642-22.851,22.778-51.378,22.778-51.378     s1.006,6.972,4.457,18.54c2.011,6.826,6.25,14.299,9.627,21.557c-2.729,3.736-4.383,5.892-4.383,5.892s0,0.071,0.07,0.143     c-2.155,2.876-4.597,5.966-7.112,8.984c-9.198,10.921-20.12,23.425-21.556,27.017c-1.726,4.24-1.294,7.399,2.012,9.844     c2.442,1.869,6.754,2.155,11.28,1.797c8.264-0.577,14.084-2.587,16.886-3.883c4.454-1.578,9.629-4.095,14.515-7.615     c8.982-6.609,14.444-16.094,13.939-28.597c-0.287-6.898-2.516-13.797-5.246-20.262c0.791-1.151,1.654-2.374,2.444-3.593     c14.229-20.769,25.222-43.544,25.222-43.544s1.006,6.968,4.454,18.537c1.725,5.821,5.102,12.216,8.191,18.466     c-13.365,10.851-21.627,23.427-24.502,31.688c-5.318,15.306-1.15,22.202,6.682,23.786c3.521,0.718,8.551-0.936,12.288-2.517     c4.67-1.581,10.275-4.096,15.52-7.976c8.982-6.609,17.677-15.88,17.103-28.454c-0.217-5.677-1.797-11.353-3.881-16.814     c11.28-4.741,25.941-7.33,44.622-5.173c40.023,4.67,47.854,29.675,46.345,40.093c-1.507,10.492-9.914,16.241-12.717,17.965     c-2.804,1.725-3.665,2.372-3.448,3.665c0.358,1.868,1.651,1.797,4.022,1.364c3.307-0.574,20.982-8.479,21.771-27.808     C487.108,308.45,463.613,281.578,422.009,281.793L422.009,281.793z M113.538,385.766c-13.22,14.443-31.759,19.904-39.734,15.305     c-8.551-4.956-5.174-26.226,11.137-41.604c9.916-9.34,22.706-17.962,31.185-23.279c1.94-1.149,4.743-2.874,8.192-4.958     c0.575-0.357,0.862-0.502,0.862-0.502c0.646-0.433,1.365-0.791,2.084-1.223C133.226,351.349,127.478,370.605,113.538,385.766     L113.538,385.766z M210.111,320.091c-4.599,11.28-14.3,40.023-20.19,38.514c-5.03-1.294-8.121-23.209-1.006-44.764     c3.592-10.851,11.208-23.784,15.736-28.813c7.256-8.121,15.232-10.708,17.101-7.474     C224.266,281.793,212.984,313.05,210.111,320.091L210.111,320.091z M289.868,358.176c-1.939,1.005-3.736,1.651-4.598,1.148     c-0.646-0.359,0.791-1.725,0.791-1.725s9.986-10.706,13.939-15.594c2.299-2.873,4.957-6.251,7.832-9.986     c0,0.357,0.07,0.719,0.07,1.148C307.833,346.031,295.474,354.727,289.868,358.176z M351.377,344.163     c-1.437-1.006-1.223-4.383,3.592-14.875c1.869-4.096,6.181-10.993,13.652-17.604c0.863,2.73,1.365,5.316,1.365,7.759     C369.913,335.611,358.346,341.647,351.377,344.163L351.377,344.163z" style="fill:#CF649A;"/></g></g></g><g id="Layer_1"/></symbol><symbol id="icon-tg" viewBox="0 0 40 40">
<rect width="40" height="40" rx="20" fill="#27A6E5"/>
<path d="M28 12.6022L24.9946 28.2923C24.9946 28.2923 24.5741 29.3801 23.4189 28.8584L16.4846 23.3526L16.4524 23.3364C17.3891 22.4654 24.6524 15.7027 24.9698 15.3961C25.4613 14.9214 25.1562 14.6387 24.5856 14.9974L13.8568 22.053L9.71764 20.6108C9.71764 20.6108 9.06626 20.3708 9.00359 19.8491C8.9401 19.3265 9.73908 19.0439 9.73908 19.0439L26.6131 12.1889C26.6131 12.1889 28 11.5579 28 12.6022Z" fill="#FEFEFE"/>
</symbol><symbol id="icon-vk" viewBox="0 0 40 40">
<rect width="40" height="40" rx="20" fill="#0077FF"/>
<path d="M20.9825 27C13.466 27 9.17864 21.7447 9 13H12.7651C12.8888 19.4184 15.6646 22.1371 17.8632 22.6977V13H21.4085V18.5355C23.5796 18.2973 25.8607 15.7748 26.6302 13H30.1755C29.8855 14.4391 29.3075 15.8017 28.4776 17.0025C27.6477 18.2033 26.5837 19.2166 25.3523 19.979C26.7269 20.6756 27.941 21.6615 28.9145 22.8717C29.888 24.082 30.5988 25.489 31 27H27.0974C26.7373 25.6876 26.0054 24.5128 24.9934 23.6228C23.9814 22.7328 22.7343 22.1673 21.4085 21.997V27H20.9825Z" fill="white"/>
</symbol></svg>